<svg
            width="100%"
            height="100%"
            id="svg"
            viewBox="0 0 1440 390"
            xmlns="http://www.w3.org/2000/svg"
            
          >
            <defs>
              <linearGradient id="gradient" x1="0%" y1="50%" x2="100%" y2="50%">
                <stop offset="5%" stopColor="#80b76c" />
                <stop offset="95%" stopColor="#7bdcb5" />
              </linearGradient>
            </defs>
            <path
              d="M 0,400 L 0,100 C 120.97607655502392,101.2822966507177 241.95215311004785,102.5645933014354 335,96 C 428.04784688995215,89.4354066985646 493.16746411483257,75.02392344497609 579,73 C 664.8325358851674,70.97607655502391 771.377990430622,81.33971291866028 876,80 C 980.622009569378,78.66028708133972 1083.3205741626796,65.61722488038278 1177,67 C 1270.6794258373204,68.38277511961722 1355.33971291866,84.19138755980862 1440,100 L 1440,400 L 0,400 Z"
              stroke="none"
              strokeWidth="0"
              fill="url(#gradient)"
              fillOpacity="0.53"
              className="transition-all duration-300 ease-in-out delay-150 path-0"
              transform="rotate(-180 720 200)"
            ></path>
            <defs>
              <linearGradient id="gradient" x1="0%" y1="50%" x2="100%" y2="50%">
                <stop offset="5%" stopColor="#80b76c" />
                <stop offset="95%" stopColor="#7bdcb5" />
              </linearGradient>
            </defs>
            <path
              d="M 0,400 L 0,233 C 88.96650717703349,231.32535885167465 177.93301435406698,229.65071770334927 282,241 C 386.066985645933,252.34928229665073 505.23444976076553,276.7224880382775 605,267 C 704.7655502392345,257.2775119617225 785.1291866028708,213.45933014354065 864,211 C 942.8708133971292,208.54066985645935 1020.2488038277511,247.44019138755982 1116,258 C 1211.751196172249,268.5598086124402 1325.8755980861245,250.7799043062201 1440,233 L 1440,400 L 0,400 Z"
              stroke="none"
              strokeWidth="0"
              fill="url(#gradient)"
              fillOpacity="1"
              className="transition-all duration-300 ease-in-out delay-150 path-1"
              transform="rotate(-180 720 200)"
            ></path>
          </svg>